<?xml version="1.0" encoding="UTF-8"?>
<svg version="1.1" xmlns="http://www.w3.org/2000/svg" width="500" height="500">
<path d="M0 0 C7.3437806 5.1341475 12.91869878 11.88409006 14.71484375 20.8125 C16.09188362 31.37609354 14.35652731 40.37419499 8.375 49.3125 C3.48812661 55.35287396 -3.60769649 58.95690104 -11 61 C-22.77048453 62.19936217 -32.02289156 60.06621649 -41.25 52.625 C-47.35883426 46.95251104 -50.46049556 40.18450609 -51.3203125 31.921875 C-51.6955822 21.36428733 -49.53302039 13.52771599 -42.5625 5.5 C-32.04894543 -5.76321672 -13.266838 -8.07443103 0 0 Z M-35.58984375 15.96484375 C-39.79616821 22.03546714 -39.84344431 27.73072742 -39 35 C-36.88869928 40.69054444 -32.90700589 44.59513877 -28 48 C-22.09788105 50.69444561 -16.09206024 50.84517764 -9.9375 49 C-4.43886249 46.73330327 -0.890119 42.05569238 2.171875 37.10546875 C4.15466877 32.06430912 3.77860712 25.8067155 2.34765625 20.6484375 C-0.16470876 15.06300799 -4.29153143 10.46646666 -10.0546875 8.1875 C-20.55012798 5.33590862 -28.72398189 7.5407721 -35.58984375 15.96484375 Z " fill="#000000" transform="translate(328,221)"/>
<path d="M0 0 C3.03737137 1.29626457 3.71466426 3.15635563 5.25341797 6.04516602 C5.84582275 7.13764648 6.43822754 8.23012695 7.04858398 9.35571289 C7.35821075 9.94102783 7.66783752 10.52634277 7.98684692 11.12939453 C9.62161834 14.21937651 11.29855906 17.28646561 12.96826172 20.35766602 C13.47808846 21.3001268 13.47808846 21.3001268 13.99821472 22.2616272 C17.93736099 29.52502747 22.12875482 36.63777852 26.32910156 43.75244141 C27.92150247 46.45712837 29.49921093 49.16988183 31.07373047 51.88500977 C31.65751465 52.87114258 32.24129883 53.85727539 32.84277344 54.87329102 C33.68219482 56.3331543 33.68219482 56.3331543 34.53857422 57.82250977 C35.30415649 59.13541992 35.30415649 59.13541992 36.08520508 60.47485352 C37.07373047 62.88500977 37.07373047 62.88500977 36.07373047 66.88500977 C11.65373047 66.88500977 -12.76626953 66.88500977 -37.92626953 66.88500977 C-39.03575413 61.33758675 -38.7988631 60.83574597 -36.08642578 56.25610352 C-35.44278076 55.15145752 -34.79913574 54.04681152 -34.13598633 52.90869141 C-33.42041924 51.71319465 -32.70467598 50.51780333 -31.98876953 49.32250977 C-31.26305235 48.08698872 -30.53887136 46.85056417 -29.81616211 45.61328125 C-28.30239389 43.02426075 -26.78195414 40.43932697 -25.25732422 37.85668945 C-21.82980979 32.03546918 -18.49844582 26.15940656 -15.15988159 20.28689575 C-13.49561021 17.36059601 -11.82667033 14.43698997 -10.15673828 11.51391602 C-9.60397217 10.54526611 -9.05120605 9.57661621 -8.48168945 8.57861328 C-7.96840088 7.68972412 -7.4551123 6.80083496 -6.92626953 5.88500977 C-6.1457019 4.50430298 -6.1457019 4.50430298 -5.34936523 3.09570312 C-3.72523929 0.5727214 -3.02320784 -0.18047286 0 0 Z M-1.92626953 17.88500977 C-2.34924316 18.65055176 -2.7722168 19.41609375 -3.20800781 20.20483398 C-4.80570032 23.09446348 -6.40501491 25.98318335 -8.00537109 28.87133789 C-8.69252799 30.11219825 -9.37907053 31.35339905 -10.06494141 32.5949707 C-11.06129993 34.39832137 -12.0595279 36.20061599 -13.05908203 38.00219727 C-13.38531555 38.59039246 -13.71154907 39.17858765 -14.04766846 39.78460693 C-16.54607515 44.26320105 -19.1732716 48.65011257 -21.890625 52.9987793 C-23.08669711 54.81855786 -23.08669711 54.81855786 -22.92626953 56.88500977 C-8.40626953 56.88500977 6.11373047 56.88500977 21.07373047 56.88500977 C19.43648723 52.79190168 17.69625302 49.28766823 15.51904297 45.48266602 C15.17622284 44.88248154 14.83340271 44.28229706 14.48019409 43.66392517 C13.75722745 42.39989889 13.03268016 41.13677548 12.30664062 39.87451172 C11.20539035 37.95909338 10.10988919 36.04047587 9.01513672 34.12133789 C4.29544431 25.84604433 4.29544431 25.84604433 -0.92626953 17.88500977 C-1.25626953 17.88500977 -1.58626953 17.88500977 -1.92626953 17.88500977 Z " fill="#000000" transform="translate(134.92626953125,215.114990234375)"/>
<path d="M0 0 C3.6599515 1.52452928 6.16983418 3.99158169 8.95703125 6.7265625 C10.10212193 7.81848768 11.2479542 8.90963569 12.39453125 10 C12.94753906 10.53077148 13.50054687 11.06154297 14.0703125 11.60839844 C17.16713256 14.54576684 20.40586035 17.3227633 23.64453125 20.1015625 C23.86367188 19.5653125 24.0828125 19.0290625 24.30859375 18.4765625 C26.10757918 15.27836618 28.52172695 12.75712286 31.01953125 10.1015625 C31.50164062 9.58078125 31.98375 9.06 32.48046875 8.5234375 C33.85870973 7.04033036 35.25132309 5.57061867 36.64453125 4.1015625 C37.35609375 3.32683594 38.06765625 2.55210937 38.80078125 1.75390625 C40.64453125 0.1015625 40.64453125 0.1015625 43.76953125 -0.3359375 C44.71828125 -0.1915625 45.66703125 -0.0471875 46.64453125 0.1015625 C48.94566907 3.55326923 48.89717688 4.85190298 48.90332031 8.91821289 C48.90962463 10.11277603 48.91592896 11.30733917 48.92242432 12.5381012 C48.91837585 13.82876999 48.91432739 15.11943878 48.91015625 16.44921875 C48.91150347 17.78535533 48.91344448 19.12149144 48.91595459 20.45762634 C48.91890216 23.2560595 48.91461943 26.0543649 48.90527344 28.8527832 C48.89386793 32.4431755 48.90044741 36.03326916 48.91241837 39.62365055 C48.91963754 42.38169108 48.917349 45.13966053 48.91216278 47.89770317 C48.91017669 49.86646086 48.91625858 51.8352213 48.92242432 53.80397034 C48.91612 54.99538132 48.90981567 56.1867923 48.90332031 57.41430664 C48.90172913 58.46671036 48.90013794 59.51911407 48.89849854 60.60340881 C48.64453125 63.1015625 48.64453125 63.1015625 46.64453125 65.1015625 C43.64453125 65.3515625 43.64453125 65.3515625 40.64453125 65.1015625 C38.26009457 62.71712582 38.3826962 62.17696468 38.32568359 58.92724609 C38.3058139 58.06650482 38.28594421 57.20576355 38.26547241 56.31893921 C38.2539212 55.38868927 38.24237 54.45843933 38.23046875 53.5 C38.2111026 52.54839996 38.19173645 51.59679993 38.17178345 50.61636353 C38.11188993 47.56985503 38.0655633 44.52330896 38.01953125 41.4765625 C37.98136046 39.4140458 37.94230927 37.3515452 37.90234375 35.2890625 C37.80618039 30.22669284 37.72218562 25.16424855 37.64453125 20.1015625 C36.52678677 21.19208181 35.41296941 22.28662704 34.30078125 23.3828125 C33.36975586 24.29643555 33.36975586 24.29643555 32.41992188 25.22851562 C30.79733194 26.94035693 29.498096 28.67783946 28.14453125 30.6015625 C25.64453125 33.1015625 25.64453125 33.1015625 22.421875 33.16796875 C17.44473953 31.76284157 15.13512795 29.27415294 11.70703125 25.5390625 C11.11857422 24.92353516 10.53011719 24.30800781 9.92382812 23.67382812 C8.48331261 22.16304356 7.06192876 20.63405695 5.64453125 19.1015625 C5.62994873 20.38844971 5.61536621 21.67533691 5.6003418 23.0012207 C5.54241977 27.770548 5.46518662 32.53940012 5.38208008 37.30834961 C5.34880201 39.3733754 5.32077911 41.43849277 5.2980957 43.50366211 C5.2646027 46.47028682 5.2122898 49.43606998 5.15625 52.40234375 C5.14666512 53.78997673 5.14666512 53.78997673 5.1368866 55.2056427 C5.11709244 56.06630844 5.09729828 56.92697418 5.0769043 57.8137207 C5.06024971 58.94956352 5.06024971 58.94956352 5.04325867 60.10835266 C4.53124226 62.66788604 3.75297779 63.58767059 1.64453125 65.1015625 C-1.98046875 64.9140625 -1.98046875 64.9140625 -5.35546875 64.1015625 C-6.66120379 61.49009241 -6.50407427 59.53832668 -6.5324707 56.61376953 C-6.54530594 55.46562775 -6.55814117 54.31748596 -6.57136536 53.134552 C-6.57875229 51.88874359 -6.58613922 50.64293518 -6.59375 49.359375 C-6.60182175 48.08432098 -6.60989349 46.80926697 -6.61820984 45.49557495 C-6.63206002 42.79372514 -6.64307402 40.09199775 -6.65063477 37.39013672 C-6.66170259 33.93088333 -6.69610707 30.47227264 -6.73580647 27.01324654 C-6.76824767 23.71201963 -6.77274919 20.41073703 -6.78125 17.109375 C-6.80751213 15.24673508 -6.80751213 15.24673508 -6.83430481 13.34646606 C-6.83137924 12.19201996 -6.82845367 11.03757385 -6.82543945 9.84814453 C-6.83130569 8.83269562 -6.83717194 7.8172467 -6.84321594 6.77102661 C-6.12161986 2.82169616 -4.16268263 0.17948549 0 0 Z " fill="#000000" transform="translate(359.35546875,216.8984375)"/>
<path d="M0 0 C2.72241211 2.04125977 2.72241211 2.04125977 5.27734375 4.69140625 C5.73355606 5.15610825 6.18976837 5.62081024 6.6598053 6.09959412 C8.10052037 7.57364969 9.51885515 9.06722375 10.9375 10.5625 C11.91590709 11.57103186 12.89571276 12.57820891 13.87695312 13.58398438 C16.2653914 16.04301689 18.638702 18.51494091 21 21 C24.66045468 19.47559203 26.85293053 17.30026934 29.5546875 14.4296875 C30.84826172 13.08583984 30.84826172 13.08583984 32.16796875 11.71484375 C33.97285482 9.82140627 35.76975994 7.92032892 37.55859375 6.01171875 C38.85603516 4.67173828 38.85603516 4.67173828 40.1796875 3.3046875 C40.96069824 2.47952637 41.74170898 1.65436523 42.54638672 0.80419922 C45.60029893 -1.44141384 47.28916113 -1.44144525 51 -1 C52.9375 0.0625 52.9375 0.0625 54 2 C53.75435327 7.75924102 52.42183617 10.31188249 48.30859375 14.27734375 C47.61154076 14.96166222 47.61154076 14.96166222 46.90040588 15.6598053 C45.42635031 17.10052037 43.93277625 18.51885515 42.4375 19.9375 C41.42896814 20.91590709 40.42179109 21.89571276 39.41601562 22.87695312 C36.95698311 25.2653914 34.48505909 27.638702 32 30 C33.52440797 33.66045468 35.69973066 35.85293053 38.5703125 38.5546875 C39.91416016 39.84826172 39.91416016 39.84826172 41.28515625 41.16796875 C43.17859373 42.97285482 45.07967108 44.76975994 46.98828125 46.55859375 C47.88160156 47.42355469 48.77492187 48.28851563 49.6953125 49.1796875 C50.9330542 50.35120361 50.9330542 50.35120361 52.19580078 51.54638672 C54.44402714 54.60385288 54.4934502 56.28464807 54 60 C52.3125 61.9375 52.3125 61.9375 50 63 C45.13742029 62.73364867 43.0155344 60.48373403 39.69921875 57.08984375 C39.2179805 56.60294571 38.73674225 56.11604767 38.24092102 55.61439514 C36.71342979 54.06460092 35.20047252 52.50145808 33.6875 50.9375 C32.6513209 49.88124806 31.6142209 48.82589867 30.57617188 47.77148438 C28.04003105 45.1913578 25.51673541 42.5990748 23 40 C15.81205797 44.95975278 10.05516886 50.91354312 4.1796875 57.33789062 C-1.21321938 62.9701566 -1.21321938 62.9701566 -5.3984375 63.12890625 C-8 62 -8 62 -10 60 C-10.43945312 57.22607422 -10.43945312 57.22607422 -10 54 C-8.37178265 51.84649051 -6.90927016 50.20388556 -4.96875 48.3828125 C-4.45824097 47.88079315 -3.94773193 47.3787738 -3.42175293 46.86154175 C-1.79474941 45.26801195 -0.14811878 43.69665222 1.5 42.125 C2.60943654 41.04567073 3.71752639 39.96495534 4.82421875 38.8828125 C7.53413951 36.2388952 10.26185458 33.61466291 13 31 C11.82195801 29.57071167 11.82195801 29.57071167 10.62011719 28.11254883 C10.17835144 27.5765657 9.73658569 27.04058258 9.28143311 26.48835754 C7.73928805 24.69718857 6.07036641 23.19280299 4.25 21.6875 C-9.31784793 9.9803855 -9.31784793 9.9803855 -10.25 5.125 C-10 2 -10 2 -9 0 C-5.7859529 -1.60702355 -3.43244589 -0.79279887 0 0 Z " fill="#0A0A0A" transform="translate(186,219)"/>
<path d="M0 0 C2.375 0.9375 2.375 0.9375 4.375 3.9375 C4.63569641 6.47998047 4.63569641 6.47998047 4.6496582 9.5546875 C4.65919022 10.70598145 4.66872223 11.85727539 4.67854309 13.04345703 C4.67763168 14.28724121 4.67672028 15.53102539 4.67578125 16.8125 C4.68006638 18.08851074 4.6843515 19.36452148 4.68876648 20.67919922 C4.69451429 23.37937154 4.69593981 26.07916213 4.69067383 28.77929688 C4.68487468 32.23965871 4.70182179 35.69948608 4.7250185 39.15975952 C4.74328838 42.46066923 4.73957085 45.7615488 4.73828125 49.0625 C4.747491 50.30628418 4.75670074 51.55006836 4.76618958 52.83154297 C4.75996078 53.98283691 4.75373199 55.13413086 4.74731445 56.3203125 C4.74794388 57.33496582 4.7485733 58.34961914 4.7492218 59.39501953 C4.375 61.9375 4.375 61.9375 3.0431366 63.76513672 C0.45804633 65.58193333 -1.56591147 65.32802194 -4.625 64.9375 C-6.88891026 61.5416346 -6.88548483 60.32276731 -6.91552734 56.33618164 C-6.92828705 55.18811539 -6.94104675 54.04004913 -6.95419312 52.85719299 C-6.95641876 51.61654587 -6.95864441 50.37589874 -6.9609375 49.09765625 C-6.9675943 47.82401718 -6.9742511 46.55037811 -6.98110962 45.23814392 C-6.99124383 42.54216553 -6.99679061 39.84659032 -6.99560547 37.15063477 C-6.99540219 33.69920794 -7.02271281 30.2486037 -7.05714989 26.79737186 C-7.08475777 23.50166404 -7.08356779 20.20596405 -7.0859375 16.91015625 C-7.10030853 15.67153336 -7.11467957 14.43291046 -7.12948608 13.15675354 C-7.12333282 12.00553513 -7.11717957 10.85431671 -7.11083984 9.66821289 C-7.11368988 8.65578018 -7.11653992 7.64334747 -7.11947632 6.60023499 C-6.34918105 2.45222609 -4.35023717 -0.10357708 0 0 Z " fill="#000000" transform="translate(258.625,217.0625)"/>
</svg>
