<svg xmlns="http://www.w3.org/2000/svg" xmlns:xlink="http://www.w3.org/1999/xlink" width="479" zoomAndPan="magnify" viewBox="0 0 359.25 60" height="80" preserveAspectRatio="xMidYMid meet" version="1.0"><defs><clipPath id="19865127e2"><path d="M 128.828125 10.113281 L 169 10.113281 L 169 49.03125 L 128.828125 49.03125 Z M 128.828125 10.113281 " clip-rule="nonzero"/></clipPath><clipPath id="963bb22dc7"><path d="M 175 10.113281 L 182 10.113281 L 182 49.03125 L 175 49.03125 Z M 175 10.113281 " clip-rule="nonzero"/></clipPath><clipPath id="a6ddd7639a"><path d="M 217 10.113281 L 258 10.113281 L 258 49.03125 L 217 49.03125 Z M 217 10.113281 " clip-rule="nonzero"/></clipPath><clipPath id="7e0d7e38f3"><path d="M 263 10.113281 L 309 10.113281 L 309 49.03125 L 263 49.03125 Z M 263 10.113281 " clip-rule="nonzero"/></clipPath><clipPath id="b4ea1eddca"><path d="M 315 10.113281 L 357.851562 10.113281 L 357.851562 49.03125 L 315 49.03125 Z M 315 10.113281 " clip-rule="nonzero"/></clipPath><clipPath id="b9f1dda15f"><path d="M 0 0.0625 L 78 0.0625 L 78 59.1875 L 0 59.1875 Z M 0 0.0625 " clip-rule="nonzero"/></clipPath><clipPath id="3e007b79d3"><path d="M 83 27 L 116 27 L 116 59.1875 L 83 59.1875 Z M 83 27 " clip-rule="nonzero"/></clipPath></defs><g clip-path="url(#19865127e2)"><path fill="#ffffff" d="M 128.859375 37.875 C 128.859375 35.539062 129.53125 33.398438 130.882812 31.453125 C 132.273438 29.507812 134.101562 28.144531 136.363281 27.367188 C 137.539062 26.933594 138.78125 26.71875 140.085938 26.71875 L 157.644531 26.71875 C 158.253906 26.71875 158.820312 26.632812 159.34375 26.460938 C 159.910156 26.285156 160.410156 26.027344 160.84375 25.679688 C 161.324219 25.335938 161.738281 24.945312 162.085938 24.515625 C 162.433594 24.082031 162.695312 23.582031 162.867188 23.023438 C 163.042969 22.460938 163.128906 21.898438 163.128906 21.335938 L 163.128906 21.207031 C 163.128906 20.210938 162.867188 19.304688 162.347656 18.480469 C 161.867188 17.660156 161.214844 17.011719 160.386719 16.535156 C 159.5625 16.015625 158.648438 15.757812 157.644531 15.757812 L 128.859375 15.757812 L 128.859375 10.113281 L 157.644531 10.113281 C 158.90625 10.113281 160.148438 10.328125 161.367188 10.761719 C 163.585938 11.539062 165.390625 12.902344 166.785156 14.847656 C 168.175781 16.75 168.875 18.890625 168.875 21.269531 C 168.875 23.214844 168.375 25.03125 167.371094 26.71875 C 166.152344 28.882812 164.433594 30.460938 162.214844 31.453125 L 162.085938 31.519531 C 160.648438 32.125 159.167969 32.425781 157.644531 32.425781 L 140.085938 32.425781 C 138.5625 32.425781 137.257812 32.96875 136.167969 34.046875 C 135.125 35.085938 134.582031 36.339844 134.535156 37.8125 L 134.535156 49.03125 L 128.859375 49.03125 Z M 128.859375 37.875 " fill-opacity="1" fill-rule="nonzero"/></g><g clip-path="url(#963bb22dc7)"><path fill="#ffffff" d="M 175.394531 10.113281 L 181.074219 10.113281 L 181.074219 49.03125 L 175.394531 49.03125 Z M 175.394531 10.113281 " fill-opacity="1" fill-rule="nonzero"/></g><g clip-path="url(#a6ddd7639a)"><path fill="#ffffff" d="M 217.148438 49.03125 L 217.148438 43.390625 L 242.738281 43.390625 C 245.132812 43.390625 247.179688 42.546875 248.875 40.859375 C 250.574219 39.128906 251.421875 37.074219 251.421875 34.699219 L 251.421875 24.449219 C 251.421875 22.070312 250.574219 20.039062 248.875 18.351562 C 247.179688 16.621094 245.132812 15.757812 242.738281 15.757812 L 217.148438 15.757812 L 217.148438 10.113281 L 242.738281 10.113281 C 246.699219 10.113281 250.09375 11.519531 252.921875 14.328125 C 255.75 17.140625 257.167969 20.515625 257.167969 24.449219 L 257.167969 34.699219 C 257.167969 38.632812 255.75 42.003906 252.921875 44.816406 C 250.09375 47.628906 246.699219 49.03125 242.738281 49.03125 Z M 217.148438 49.03125 " fill-opacity="1" fill-rule="nonzero"/></g><g clip-path="url(#7e0d7e38f3)"><path fill="#ffffff" d="M 263.6875 24.449219 C 263.6875 20.515625 265.101562 17.140625 267.929688 14.328125 C 270.757812 11.519531 274.152344 10.113281 278.113281 10.113281 L 294.300781 10.113281 C 298.261719 10.113281 301.65625 11.519531 304.484375 14.328125 C 307.316406 17.140625 308.730469 20.515625 308.730469 24.449219 L 308.730469 34.699219 C 308.730469 38.632812 307.316406 42.003906 304.484375 44.816406 C 301.65625 47.628906 298.261719 49.03125 294.300781 49.03125 L 278.113281 49.03125 C 274.152344 49.03125 270.757812 47.628906 267.929688 44.816406 C 265.101562 42.003906 263.6875 38.632812 263.6875 34.699219 Z M 278.113281 43.390625 L 294.300781 43.390625 C 296.695312 43.390625 298.742188 42.546875 300.4375 40.859375 C 302.179688 39.128906 303.050781 37.074219 303.050781 34.699219 L 303.050781 24.449219 C 303.050781 22.070312 302.179688 20.039062 300.4375 18.351562 C 298.742188 16.621094 296.695312 15.757812 294.300781 15.757812 L 278.113281 15.757812 C 276.546875 15.757812 275.089844 16.144531 273.738281 16.925781 C 272.390625 17.703125 271.324219 18.761719 270.539062 20.101562 C 269.757812 21.445312 269.367188 22.890625 269.367188 24.449219 L 269.367188 34.699219 C 269.367188 37.074219 270.214844 39.128906 271.910156 40.859375 C 273.652344 42.546875 275.71875 43.390625 278.113281 43.390625 Z M 278.113281 43.390625 " fill-opacity="1" fill-rule="nonzero"/></g><g clip-path="url(#b4ea1eddca)"><path fill="#ffffff" d="M 333.667969 49.03125 L 333.667969 15.757812 L 315.261719 15.757812 L 315.261719 10.113281 L 357.820312 10.113281 L 357.820312 15.757812 L 339.347656 15.757812 L 339.347656 49.03125 Z M 333.667969 49.03125 " fill-opacity="1" fill-rule="nonzero"/></g><path fill="#ffffff" d="M 227.921875 28.808594 C 227.921875 32.066406 225.332031 34.640625 222.136719 34.640625 C 218.941406 34.640625 216.351562 32.066406 216.351562 28.808594 C 216.351562 25.632812 218.941406 23.058594 222.136719 23.058594 C 225.332031 23.058594 227.921875 25.632812 227.921875 28.808594 Z M 227.921875 28.808594 " fill-opacity="1" fill-rule="nonzero"/><g clip-path="url(#b9f1dda15f)"><path fill="#ffffff" d="M 0.0117188 11.285156 L 13.457031 0.0625 L 77.667969 0.0625 L 77.667969 59.1875 L 63.621094 59.1875 L 63.621094 18.300781 L 55.597656 18.300781 L 25.496094 59.1875 L 0.0117188 59.1875 L 30.109375 11.285156 Z M 0.0117188 11.285156 " fill-opacity="1" fill-rule="nonzero"/></g><g clip-path="url(#3e007b79d3)"><path fill="#ffffff" d="M 115.996094 43.140625 C 115.996094 43.667969 115.972656 44.191406 115.921875 44.714844 C 115.867188 45.238281 115.792969 45.753906 115.6875 46.269531 C 115.585938 46.785156 115.460938 47.296875 115.304688 47.800781 C 115.152344 48.300781 114.976562 48.796875 114.777344 49.28125 C 114.574219 49.765625 114.351562 50.242188 114.101562 50.707031 C 113.855469 51.167969 113.585938 51.621094 113.292969 52.054688 C 113 52.492188 112.6875 52.914062 112.355469 53.320312 C 112.023438 53.726562 111.667969 54.117188 111.296875 54.488281 C 110.925781 54.859375 110.539062 55.210938 110.132812 55.546875 C 109.726562 55.878906 109.304688 56.191406 108.867188 56.484375 C 108.429688 56.777344 107.980469 57.046875 107.515625 57.292969 C 107.050781 57.542969 106.578125 57.765625 106.09375 57.96875 C 105.605469 58.167969 105.113281 58.34375 104.609375 58.496094 C 104.105469 58.652344 103.597656 58.777344 103.082031 58.878906 C 102.566406 58.984375 102.046875 59.058594 101.523438 59.113281 C 101.003906 59.164062 100.476562 59.1875 99.953125 59.1875 C 99.425781 59.1875 98.902344 59.164062 98.378906 59.113281 C 97.855469 59.058594 97.339844 58.984375 96.824219 58.878906 C 96.308594 58.777344 95.796875 58.652344 95.296875 58.496094 C 94.792969 58.34375 94.296875 58.167969 93.8125 57.96875 C 93.328125 57.765625 92.851562 57.542969 92.390625 57.292969 C 91.925781 57.046875 91.476562 56.777344 91.039062 56.484375 C 90.601562 56.191406 90.179688 55.878906 89.773438 55.546875 C 89.367188 55.210938 88.980469 54.859375 88.605469 54.488281 C 88.234375 54.117188 87.882812 53.726562 87.550781 53.320312 C 87.214844 52.914062 86.902344 52.492188 86.613281 52.054688 C 86.320312 51.621094 86.050781 51.167969 85.800781 50.707031 C 85.554688 50.242188 85.332031 49.765625 85.128906 49.28125 C 84.929688 48.796875 84.75 48.300781 84.597656 47.800781 C 84.445312 47.296875 84.320312 46.785156 84.214844 46.269531 C 84.113281 45.753906 84.035156 45.238281 83.984375 44.714844 C 83.933594 44.191406 83.90625 43.667969 83.90625 43.140625 C 83.90625 42.613281 83.933594 42.089844 83.984375 41.566406 C 84.035156 41.042969 84.113281 40.523438 84.214844 40.007812 C 84.320312 39.492188 84.445312 38.984375 84.597656 38.480469 C 84.75 37.980469 84.929688 37.484375 85.128906 37 C 85.332031 36.511719 85.554688 36.039062 85.800781 35.574219 C 86.050781 35.113281 86.320312 34.660156 86.613281 34.222656 C 86.902344 33.789062 87.214844 33.367188 87.550781 32.960938 C 87.882812 32.554688 88.234375 32.164062 88.605469 31.792969 C 88.980469 31.421875 89.367188 31.066406 89.773438 30.734375 C 90.179688 30.402344 90.601562 30.089844 91.039062 29.796875 C 91.476562 29.503906 91.925781 29.234375 92.390625 28.988281 C 92.851562 28.738281 93.328125 28.515625 93.8125 28.3125 C 94.296875 28.113281 94.792969 27.933594 95.296875 27.78125 C 95.796875 27.628906 96.308594 27.503906 96.824219 27.398438 C 97.339844 27.296875 97.855469 27.21875 98.378906 27.167969 C 98.902344 27.117188 99.425781 27.089844 99.953125 27.089844 C 100.476562 27.089844 101.003906 27.117188 101.523438 27.167969 C 102.046875 27.21875 102.566406 27.296875 103.082031 27.398438 C 103.597656 27.503906 104.105469 27.628906 104.609375 27.78125 C 105.113281 27.933594 105.605469 28.113281 106.09375 28.3125 C 106.578125 28.515625 107.050781 28.738281 107.515625 28.988281 C 107.980469 29.234375 108.429688 29.503906 108.867188 29.796875 C 109.304688 30.089844 109.726562 30.402344 110.132812 30.734375 C 110.539062 31.066406 110.925781 31.421875 111.296875 31.792969 C 111.667969 32.164062 112.023438 32.554688 112.355469 32.960938 C 112.6875 33.367188 113 33.789062 113.292969 34.222656 C 113.585938 34.660156 113.855469 35.113281 114.101562 35.574219 C 114.351562 36.039062 114.574219 36.511719 114.777344 37 C 114.976562 37.484375 115.152344 37.980469 115.304688 38.480469 C 115.460938 38.984375 115.585938 39.492188 115.6875 40.007812 C 115.792969 40.523438 115.867188 41.042969 115.921875 41.566406 C 115.972656 42.089844 115.996094 42.613281 115.996094 43.140625 Z M 115.996094 43.140625 " fill-opacity="1" fill-rule="nonzero"/></g></svg>