<svg xmlns="http://www.w3.org/2000/svg" xmlns:xlink="http://www.w3.org/1999/xlink" width="479" zoomAndPan="magnify" viewBox="0 0 359.25 60" height="80" preserveAspectRatio="xMidYMid meet" version="1.0"><defs><clipPath id="23af961a6b"><path d="M 128.828125 10.113281 L 169 10.113281 L 169 49.03125 L 128.828125 49.03125 Z M 128.828125 10.113281 " clip-rule="nonzero"/></clipPath><clipPath id="0612d73286"><path d="M 175 10.113281 L 182 10.113281 L 182 49.03125 L 175 49.03125 Z M 175 10.113281 " clip-rule="nonzero"/></clipPath><clipPath id="ba21d68bb6"><path d="M 217 10.113281 L 258 10.113281 L 258 49.03125 L 217 49.03125 Z M 217 10.113281 " clip-rule="nonzero"/></clipPath><clipPath id="d4fe7eeb2b"><path d="M 263 10.113281 L 309 10.113281 L 309 49.03125 L 263 49.03125 Z M 263 10.113281 " clip-rule="nonzero"/></clipPath><clipPath id="c02e4cc427"><path d="M 315 10.113281 L 357.851562 10.113281 L 357.851562 49.03125 L 315 49.03125 Z M 315 10.113281 " clip-rule="nonzero"/></clipPath><clipPath id="bcca011fca"><path d="M 0 0.0625 L 78 0.0625 L 78 59.1875 L 0 59.1875 Z M 0 0.0625 " clip-rule="nonzero"/></clipPath><clipPath id="0e1ec702c9"><path d="M 83 27 L 116 27 L 116 59.1875 L 83 59.1875 Z M 83 27 " clip-rule="nonzero"/></clipPath></defs><g clip-path="url(#23af961a6b)"><path fill="#f69507" d="M 128.859375 37.976562 C 128.859375 35.632812 129.53125 33.484375 130.882812 31.53125 C 132.277344 29.578125 134.105469 28.210938 136.371094 27.429688 C 137.546875 26.996094 138.789062 26.777344 140.09375 26.777344 L 157.671875 26.777344 C 158.28125 26.777344 158.847656 26.691406 159.371094 26.519531 C 159.9375 26.34375 160.4375 26.085938 160.871094 25.738281 C 161.351562 25.390625 161.765625 25 162.113281 24.566406 C 162.460938 24.132812 162.722656 23.632812 162.898438 23.070312 C 163.070312 22.503906 163.160156 21.941406 163.160156 21.375 L 163.160156 21.246094 C 163.160156 20.246094 162.898438 19.335938 162.375 18.511719 C 161.894531 17.6875 161.242188 17.035156 160.414062 16.558594 C 159.585938 16.039062 158.671875 15.777344 157.671875 15.777344 L 128.859375 15.777344 L 128.859375 10.113281 L 157.671875 10.113281 C 158.933594 10.113281 160.175781 10.332031 161.394531 10.765625 C 163.617188 11.546875 165.425781 12.914062 166.816406 14.867188 C 168.210938 16.777344 168.910156 18.921875 168.910156 21.3125 C 168.910156 23.265625 168.40625 25.085938 167.40625 26.777344 C 166.1875 28.949219 164.464844 30.53125 162.246094 31.53125 L 162.113281 31.597656 C 160.675781 32.203125 159.195312 32.507812 157.671875 32.507812 L 140.09375 32.507812 C 138.570312 32.507812 137.265625 33.050781 136.175781 34.136719 C 135.128906 35.175781 134.585938 36.433594 134.542969 37.910156 L 134.542969 49.171875 L 128.859375 49.171875 Z M 128.859375 37.976562 " fill-opacity="1" fill-rule="nonzero"/></g><g clip-path="url(#0612d73286)"><path fill="#f69507" d="M 175.433594 10.113281 L 181.121094 10.113281 L 181.121094 49.171875 L 175.433594 49.171875 Z M 175.433594 10.113281 " fill-opacity="1" fill-rule="nonzero"/></g><g clip-path="url(#ba21d68bb6)"><path fill="#f69507" d="M 217.226562 49.171875 L 217.226562 43.507812 L 242.839844 43.507812 C 245.234375 43.507812 247.28125 42.664062 248.980469 40.96875 C 250.679688 39.234375 251.527344 37.171875 251.527344 34.785156 L 251.527344 24.5 C 251.527344 22.113281 250.679688 20.074219 248.980469 18.382812 C 247.28125 16.644531 245.234375 15.777344 242.839844 15.777344 L 217.226562 15.777344 L 217.226562 10.113281 L 242.839844 10.113281 C 246.800781 10.113281 250.199219 11.523438 253.03125 14.34375 C 255.863281 17.167969 257.277344 20.550781 257.277344 24.5 L 257.277344 34.785156 C 257.277344 38.734375 255.863281 42.121094 253.03125 44.941406 C 250.199219 47.761719 246.800781 49.171875 242.839844 49.171875 Z M 217.226562 49.171875 " fill-opacity="1" fill-rule="nonzero"/></g><g clip-path="url(#d4fe7eeb2b)"><path fill="#f69507" d="M 263.804688 24.5 C 263.804688 20.550781 265.21875 17.167969 268.050781 14.34375 C 270.882812 11.523438 274.277344 10.113281 278.242188 10.113281 L 294.445312 10.113281 C 298.410156 10.113281 301.808594 11.523438 304.636719 14.34375 C 307.46875 17.167969 308.886719 20.550781 308.886719 24.5 L 308.886719 34.785156 C 308.886719 38.734375 307.46875 42.121094 304.636719 44.941406 C 301.808594 47.761719 298.410156 49.171875 294.445312 49.171875 L 278.242188 49.171875 C 274.277344 49.171875 270.882812 47.761719 268.050781 44.941406 C 265.21875 42.121094 263.804688 38.734375 263.804688 34.785156 Z M 278.242188 43.507812 L 294.445312 43.507812 C 296.84375 43.507812 298.890625 42.664062 300.589844 40.96875 C 302.328125 39.234375 303.203125 37.171875 303.203125 34.785156 L 303.203125 24.5 C 303.203125 22.113281 302.328125 20.074219 300.589844 18.382812 C 298.890625 16.644531 296.84375 15.777344 294.445312 15.777344 L 278.242188 15.777344 C 276.675781 15.777344 275.214844 16.167969 273.867188 16.949219 C 272.515625 17.730469 271.449219 18.792969 270.664062 20.140625 C 269.878906 21.484375 269.488281 22.9375 269.488281 24.5 L 269.488281 34.785156 C 269.488281 37.171875 270.335938 39.234375 272.035156 40.96875 C 273.777344 42.664062 275.847656 43.507812 278.242188 43.507812 Z M 278.242188 43.507812 " fill-opacity="1" fill-rule="nonzero"/></g><g clip-path="url(#c02e4cc427)"><path fill="#f69507" d="M 333.847656 49.171875 L 333.847656 15.777344 L 315.421875 15.777344 L 315.421875 10.113281 L 358.019531 10.113281 L 358.019531 15.777344 L 339.53125 15.777344 L 339.53125 49.171875 Z M 333.847656 49.171875 " fill-opacity="1" fill-rule="nonzero"/></g><path fill="#f69507" d="M 228.007812 28.875 C 228.007812 32.144531 225.414062 34.730469 222.21875 34.730469 C 219.019531 34.730469 216.429688 32.144531 216.429688 28.875 C 216.429688 25.6875 219.019531 23.105469 222.21875 23.105469 C 225.414062 23.105469 228.007812 25.6875 228.007812 28.875 Z M 228.007812 28.875 " fill-opacity="1" fill-rule="nonzero"/><g clip-path="url(#bcca011fca)"><path fill="#f69507" d="M 0.0117188 11.292969 L 13.445312 0.0625 L 77.605469 0.0625 L 77.605469 59.222656 L 63.570312 59.222656 L 63.570312 18.3125 L 55.550781 18.3125 L 25.476562 59.222656 L 0.0117188 59.222656 L 30.085938 11.292969 Z M 0.0117188 11.292969 " fill-opacity="1" fill-rule="nonzero"/></g><g clip-path="url(#0e1ec702c9)"><path fill="#f69507" d="M 115.902344 43.164062 C 115.902344 43.691406 115.878906 44.214844 115.828125 44.738281 C 115.773438 45.261719 115.699219 45.78125 115.597656 46.296875 C 115.492188 46.816406 115.367188 47.324219 115.214844 47.828125 C 115.0625 48.332031 114.882812 48.824219 114.683594 49.3125 C 114.484375 49.796875 114.257812 50.273438 114.011719 50.734375 C 113.761719 51.199219 113.492188 51.648438 113.203125 52.085938 C 112.910156 52.523438 112.597656 52.945312 112.265625 53.351562 C 111.933594 53.757812 111.578125 54.148438 111.207031 54.519531 C 110.835938 54.894531 110.449219 55.246094 110.042969 55.578125 C 109.636719 55.914062 109.214844 56.226562 108.777344 56.519531 C 108.34375 56.808594 107.890625 57.082031 107.429688 57.328125 C 106.964844 57.574219 106.492188 57.800781 106.007812 58 C 105.523438 58.203125 105.027344 58.378906 104.527344 58.53125 C 104.023438 58.683594 103.515625 58.8125 103 58.914062 C 102.484375 59.019531 101.964844 59.09375 101.445312 59.148438 C 100.921875 59.199219 100.398438 59.222656 99.871094 59.222656 C 99.347656 59.222656 98.824219 59.199219 98.300781 59.148438 C 97.777344 59.09375 97.257812 59.019531 96.746094 58.914062 C 96.230469 58.8125 95.722656 58.683594 95.21875 58.53125 C 94.714844 58.378906 94.222656 58.203125 93.738281 58 C 93.25 57.800781 92.777344 57.574219 92.316406 57.328125 C 91.851562 57.082031 91.402344 56.808594 90.964844 56.519531 C 90.527344 56.226562 90.109375 55.914062 89.703125 55.578125 C 89.296875 55.246094 88.90625 54.894531 88.535156 54.519531 C 88.164062 54.148438 87.8125 53.757812 87.480469 53.351562 C 87.144531 52.945312 86.832031 52.523438 86.542969 52.085938 C 86.25 51.648438 85.980469 51.199219 85.734375 50.734375 C 85.484375 50.273438 85.261719 49.796875 85.0625 49.3125 C 84.859375 48.824219 84.683594 48.332031 84.53125 47.828125 C 84.378906 47.324219 84.25 46.816406 84.148438 46.296875 C 84.046875 45.78125 83.96875 45.261719 83.917969 44.738281 C 83.867188 44.214844 83.839844 43.691406 83.839844 43.164062 C 83.839844 42.640625 83.867188 42.117188 83.917969 41.59375 C 83.96875 41.070312 84.046875 40.550781 84.148438 40.03125 C 84.25 39.515625 84.378906 39.007812 84.53125 38.503906 C 84.683594 38 84.859375 37.507812 85.0625 37.019531 C 85.261719 36.535156 85.484375 36.058594 85.734375 35.597656 C 85.980469 35.132812 86.25 34.683594 86.542969 34.246094 C 86.832031 33.808594 87.144531 33.386719 87.480469 32.980469 C 87.8125 32.570312 88.164062 32.183594 88.535156 31.8125 C 88.90625 31.4375 89.296875 31.085938 89.703125 30.753906 C 90.109375 30.417969 90.527344 30.105469 90.964844 29.8125 C 91.402344 29.523438 91.851562 29.25 92.316406 29.003906 C 92.777344 28.757812 93.25 28.53125 93.738281 28.332031 C 94.222656 28.128906 94.714844 27.953125 95.21875 27.800781 C 95.722656 27.648438 96.230469 27.519531 96.746094 27.417969 C 97.257812 27.3125 97.777344 27.238281 98.300781 27.183594 C 98.824219 27.132812 99.347656 27.109375 99.871094 27.109375 C 100.398438 27.109375 100.921875 27.132812 101.445312 27.183594 C 101.964844 27.238281 102.484375 27.3125 103 27.417969 C 103.515625 27.519531 104.023438 27.648438 104.527344 27.800781 C 105.027344 27.953125 105.523438 28.128906 106.007812 28.332031 C 106.492188 28.53125 106.964844 28.757812 107.429688 29.003906 C 107.890625 29.25 108.34375 29.523438 108.777344 29.8125 C 109.214844 30.105469 109.636719 30.417969 110.042969 30.753906 C 110.449219 31.085938 110.835938 31.4375 111.207031 31.8125 C 111.578125 32.183594 111.933594 32.570312 112.265625 32.980469 C 112.597656 33.386719 112.910156 33.808594 113.203125 34.246094 C 113.492188 34.683594 113.761719 35.132812 114.011719 35.597656 C 114.257812 36.058594 114.484375 36.535156 114.683594 37.019531 C 114.882812 37.507812 115.0625 38 115.214844 38.503906 C 115.367188 39.007812 115.492188 39.515625 115.597656 40.03125 C 115.699219 40.550781 115.773438 41.070312 115.828125 41.59375 C 115.878906 42.117188 115.902344 42.640625 115.902344 43.164062 Z M 115.902344 43.164062 " fill-opacity="1" fill-rule="nonzero"/></g></svg>